<?xml version="1.0" encoding="UTF-8" standalone="no"?>
<!-- Created with Inkscape (http://www.inkscape.org/) -->

<svg
   xmlns:dc="http://purl.org/dc/elements/1.1/"
   xmlns:cc="http://creativecommons.org/ns#"
   xmlns:rdf="http://www.w3.org/1999/02/22-rdf-syntax-ns#"
   xmlns:svg="http://www.w3.org/2000/svg"
   xmlns="http://www.w3.org/2000/svg"
   xmlns:sodipodi="http://sodipodi.sourceforge.net/DTD/sodipodi-0.dtd"
   xmlns:inkscape="http://www.inkscape.org/namespaces/inkscape"
   width="67.041573mm"
   height="16.424658mm"
   viewBox="0 0 67.041573 16.424658"
   version="1.1"
   id="svg7157"
   inkscape:version="0.92.3 (2405546, 2018-03-11)"
   sodipodi:docname="tormentor2.svg">
  <defs
     id="defs7151">
    <inkscape:path-effect
       effect="bend_path"
       id="path-effect8170"
       is_visible="true"
       bendpath="m 40.910418,22.589284 c 19.208974,-5.113374 43.917193,6.879188 62.933032,0"
       prop_scale="0.98339258"
       scale_y_rel="false"
       vertical="false"
       bendpath-nodetypes="cc" />
    <inkscape:path-effect
       effect="bend_path"
       id="path-effect8168"
       is_visible="true"
       bendpath="M 41.010418,22.589284 H 103.94345"
       prop_scale="1"
       scale_y_rel="false"
       vertical="false" />
    <inkscape:path-effect
       effect="transform_2pts"
       start="114.71577,14.651786"
       end="165.3248,1.4843733"
       id="path-effect8041"
       is_visible="true"
       first_knot="1"
       last_knot="2"
       helper_size="3"
       stretch="1"
       offset="0"
       elastic="false"
       from_original_width="true"
       flip_vertical="false"
       flip_horizontal="false"
       lock_lenght="false"
       lock_angle="false" />
    <inkscape:path-effect
       effect="bend_path"
       id="path-effect8039"
       is_visible="true"
       bendpath="m 114.71577,14.651786 h 61.04315"
       prop_scale="1"
       scale_y_rel="false"
       vertical="false" />
  </defs>
  <sodipodi:namedview
     id="base"
     pagecolor="#ffffff"
     bordercolor="#666666"
     borderopacity="1.0"
     inkscape:pageopacity="0.0"
     inkscape:pageshadow="2"
     inkscape:zoom="2.8"
     inkscape:cx="21.685103"
     inkscape:cy="-52.527898"
     inkscape:document-units="mm"
     inkscape:current-layer="layer1"
     showgrid="false"
     inkscape:window-width="2560"
     inkscape:window-height="1355"
     inkscape:window-x="0"
     inkscape:window-y="27"
     inkscape:window-maximized="1"
     fit-margin-top="0"
     fit-margin-left="0"
     fit-margin-right="0"
     fit-margin-bottom="0" />
  <metadata
     id="metadata7154">
    <rdf:RDF>
      <cc:Work
         rdf:about="">
        <dc:format>image/svg+xml</dc:format>
        <dc:type
           rdf:resource="http://purl.org/dc/dcmitype/StillImage" />
        <dc:title></dc:title>
      </cc:Work>
    </rdf:RDF>
  </metadata>
  <g
     inkscape:label="Layer 1"
     inkscape:groupmode="layer"
     id="layer1"
     transform="translate(-42.597018,-26.720361)">
    <g
       id="g7979"
       transform="translate(3.5907735,11.90625)"
       inkscape:path-effect="#path-effect8170">
      <path
         style="opacity:1;fill:#fce2a2;fill-opacity:1;fill-rule:evenodd;stroke:#888888;stroke-width:0.26458332;stroke-opacity:1"
         d="m 39.168711,16.51308 c 5.945043,-1.544498 11.839959,-1.775603 17.358122,-1.422605 l 3e-6,1e-6 c 5.839366,0.338076 11.418241,1.160223 16.779197,1.900446 5.364265,0.722344 10.519179,1.407266 15.475065,1.463238 4.619201,0.02039 9.041442,-0.361048 12.837742,-1.778709 l 4.25943,11.895972 C 100.07665,30.590366 94.173275,31.21862 88.597139,31.090586 82.673425,30.988174 77.008715,30.264805 71.592686,29.512006 66.130683,28.771248 60.887293,27.9814 55.819945,27.708455 c 0,0 -10e-7,0 -2e-6,0 -4.781955,-0.224039 -9.345062,-0.130727 -13.362692,1.009225 z"
         id="rect7755"
         inkscape:original-d="m 41.010418,16.163689 h 62.933032 v 12.85119 H 41.010418 Z"
         inkscape:connector-curvature="0" />
      <g
         aria-label="Tor
"
         transform="scale(0.99140904,1.0086654)"
         style="font-style:normal;font-variant:normal;font-weight:normal;font-stretch:normal;font-size:12.15354824px;line-height:1.25;font-family:'Comic Sans MS';-inkscape-font-specification:'Comic Sans MS, Normal';font-variant-ligatures:normal;font-variant-caps:normal;font-variant-numeric:normal;font-feature-settings:normal;text-align:start;letter-spacing:0px;word-spacing:0px;writing-mode:lr-tb;text-anchor:start;fill:#ee4c2c;fill-opacity:1;stroke:none;stroke-width:0.30383867"
         id="text7161">
        <path
           d="m 49.344558,18.400777 c -0.322946,0.01773 -0.780574,0.02166 -1.445713,0.02888 -0.633943,0.0095 -1.123463,0.04178 -1.45015,0.08229 -0.150071,0.01683 -0.30015,0.03437 -0.45023,0.05264 0.08027,0.539818 0.242074,1.377924 0.483693,2.57186 0.221065,1.099891 0.364703,1.971533 0.436622,2.584176 0.0159,0.13544 0.05296,0.337792 0.110735,0.609351 0.05763,0.270864 0.09422,0.476716 0.110214,0.615345 0.03028,0.26243 0.01648,0.492746 -0.03945,0.690457 -0.06958,0.265891 -0.207001,0.410374 -0.413746,0.436007 -0.140299,0.0174 -0.273404,-0.02008 -0.400954,-0.112613 -0.12744,-0.09246 -0.20433,-0.222859 -0.229139,-0.391923 -0.0084,-0.05757 -0.01231,-0.14542 -0.0113,-0.26314 0.001,-0.117863 -0.0025,-0.205448 -0.01091,-0.263179 -0.02725,-0.187639 -0.08102,-0.469843 -0.161719,-0.842167 -0.07732,-0.374238 -0.130298,-0.655569 -0.158684,-0.848412 -0.08028,-0.545349 -0.238089,-1.320001 -0.47884,-2.297272 -0.259859,-1.069459 -0.433446,-1.815947 -0.520147,-2.290458 -0.191892,0.03082 -0.383726,0.06291 -0.575488,0.09628 -0.926971,0.151896 -1.657839,0.238524 -2.217097,0.232359 -0.360096,-0.005 -0.578345,-0.150765 -0.649958,-0.445997 -0.03759,-0.154982 -0.01475,-0.303999 0.07028,-0.44687 0.09874,-0.16183 0.253046,-0.259883 0.460763,-0.292291 0.146857,-0.02378 0.518825,-0.06644 1.067475,-0.107383 0.445952,-0.03639 0.798065,-0.07284 1.069206,-0.117304 0.238041,-0.03904 0.677867,-0.113061 1.183893,-0.190304 0.521138,-0.08342 0.929295,-0.137143 1.182577,-0.165741 0.330716,-0.03734 0.834085,-0.06956 1.487003,-0.08128 0.672735,-0.01236 1.141705,-0.01956 1.485422,-0.03868 0.184999,-0.01029 0.3428,0.04033 0.472403,0.151162 0.129474,0.10698 0.197229,0.246395 0.204601,0.417584 0.0072,0.16732 -0.04823,0.311966 -0.165062,0.43433 -0.117073,0.118538 -0.265468,0.182329 -0.446326,0.192257 4e-6,8e-6 7e-6,1.6e-5 10e-6,2.4e-5 z"
           style="font-style:normal;font-variant:normal;font-weight:normal;font-stretch:normal;font-size:12.15354824px;font-family:'Comic Sans MS';-inkscape-font-specification:'Comic Sans MS, Normal';font-variant-ligatures:normal;font-variant-caps:normal;font-variant-numeric:normal;font-feature-settings:normal;text-align:start;writing-mode:lr-tb;text-anchor:start;fill:#ee4c2c;fill-opacity:1;stroke-width:0.30383867"
           id="path8139"
           inkscape:original-d="m 49.745884,19.573135 q -0.439142,0 -1.353032,-0.07121 -0.890152,-0.06528 -1.353032,-0.05934 h -0.421338 q 0.0178,0.81894 0.160227,2.658589 0.130556,1.715027 0.130556,2.664523 0,0.207702 0.04154,0.629041 0.04154,0.421338 0.04154,0.634975 0,0.403536 -0.130556,0.694319 -0.166162,0.391667 -0.516289,0.391667 -0.237373,0 -0.427273,-0.166162 -0.189899,-0.166162 -0.189899,-0.427273 0,-0.08901 0.02967,-0.267046 0.02967,-0.17803 0.02967,-0.267045 0,-0.290784 -0.04154,-0.87235 -0.03561,-0.581566 -0.03561,-0.878284 0,-0.848612 -0.13649,-2.385608 -0.142424,-1.661618 -0.160227,-2.385609 l -0.540026,0.0059 q -1.299623,0 -2.041417,-0.1899 -0.480682,-0.124621 -0.480682,-0.5875 0,-0.243309 0.154293,-0.427273 0.178031,-0.207703 0.456945,-0.1899 0.207702,0.01187 0.949496,0.106819 0.593435,0.07121 0.961365,0.07121 0.356061,0 1.080051,-0.01187 0.723991,-0.0178 1.080052,-0.0178 0.456945,0 1.353032,0.06528 0.902021,0.06528 1.358966,0.06528 0.255177,0 0.427273,0.17803 0.172096,0.172096 0.172096,0.433208 0,0.255177 -0.172096,0.433207 -0.172096,0.172097 -0.427273,0.172097 z"
           inkscape:connector-curvature="0" />
        <path
           d="m 52.739208,26.046408 c -0.618452,-0.0025 -1.147033,-0.237739 -1.606309,-0.710685 -0.510447,-0.524328 -0.809885,-1.23783 -0.874433,-2.142118 -0.0597,-0.878871 0.126228,-1.66199 0.589416,-2.346673 0.538977,-0.806194 1.33747,-1.217467 2.361606,-1.207212 0.819074,0.0082 1.428505,0.385554 1.815729,1.112294 0.308475,0.588567 0.433164,1.287408 0.386892,2.096662 -0.04858,0.863496 -0.305843,1.591881 -0.753573,2.190185 -0.507866,0.679263 -1.143026,1.010666 -1.919328,1.007547 z m 0.379681,-5.22026 c -0.591043,-0.0091 -1.051361,0.267551 -1.36873,0.821047 -0.251792,0.444061 -0.367127,0.948891 -0.355806,1.51405 0.01131,0.564559 0.171683,1.00267 0.47244,1.314695 0.251786,0.258637 0.542119,0.387837 0.876542,0.389126 0.390765,0.0015 0.729381,-0.141937 1.020568,-0.432959 0.329486,-0.321158 0.515767,-0.75886 0.550611,-1.3155 0.09595,-1.50368 -0.292448,-2.278547 -1.195625,-2.290459 z"
           style="font-style:normal;font-variant:normal;font-weight:normal;font-stretch:normal;font-size:12.15354824px;font-family:'Comic Sans MS';-inkscape-font-specification:'Comic Sans MS, Normal';font-variant-ligatures:normal;font-variant-caps:normal;font-variant-numeric:normal;font-feature-settings:normal;text-align:start;writing-mode:lr-tb;text-anchor:start;fill:#ee4c2c;fill-opacity:1;stroke-width:0.30383867"
           id="path8141"
           inkscape:original-d="m 52.97417,27.418345 q -0.996971,0 -1.715027,-0.73586 -0.801138,-0.81894 -0.842678,-2.201643 -0.03561,-1.341163 0.676516,-2.361871 0.830809,-1.204673 2.314396,-1.204673 1.18687,0 1.798108,1.085986 0.486617,0.878283 0.468814,2.112628 -0.0178,1.317426 -0.688385,2.249119 -0.759596,1.056314 -2.011744,1.056314 z m 0.356061,-5.299374 q -0.87235,-0.0059 -1.358966,0.830809 -0.385733,0.670581 -0.385733,1.531062 0,0.86048 0.468814,1.341163 0.391667,0.397601 0.919824,0.397601 0.617172,0 1.062248,-0.45101 0.50442,-0.498486 0.534092,-1.347098 0.08308,-2.296593 -1.240279,-2.302527 z"
           inkscape:connector-curvature="0" />
        <path
           d="m 61.5655,21.887657 c -0.07799,0.481036 -0.300292,0.702534 -0.666087,0.667445 -0.338243,-0.03245 -0.489804,-0.2392 -0.453379,-0.622699 0.007,-0.07349 0.01394,-0.209716 0.02075,-0.408209 0.0095,-0.163176 0.01891,-0.326353 0.02833,-0.489533 -0.637031,0.01597 -1.156798,0.147024 -1.556262,0.388819 -0.374272,0.224412 -0.696255,0.583064 -0.964879,1.07525 -0.0728,1.06327 -0.145728,2.12653 -0.218787,3.189779 -0.02835,0.392126 -0.230087,0.574181 -0.602758,0.550801 -0.331044,-0.02077 -0.485321,-0.225593 -0.461646,-0.618061 l 0.246675,-4.089191 c 0.0077,-0.128016 0.0233,-0.320284 0.04677,-0.575981 0.02749,-0.255735 0.04517,-0.447326 0.05295,-0.575611 0.02378,-0.391987 0.213223,-0.578323 0.569542,-0.555361 0.397063,0.02559 0.572524,0.362466 0.529782,1.006417 0.819845,-0.663841 1.713282,-0.952689 2.654525,-0.865217 0.325858,0.03028 0.557231,0.172134 0.693328,0.423926 0.136208,0.251997 0.178778,0.615751 0.129306,1.091765 -0.02091,0.201168 -0.03696,0.336441 -0.04813,0.405665 0,0 -4e-5,-4e-6 -4e-5,-4e-6 z"
           style="font-style:normal;font-variant:normal;font-weight:normal;font-stretch:normal;font-size:12.15354824px;font-family:'Comic Sans MS';-inkscape-font-specification:'Comic Sans MS, Normal';font-variant-ligatures:normal;font-variant-caps:normal;font-variant-numeric:normal;font-feature-settings:normal;text-align:start;writing-mode:lr-tb;text-anchor:start;fill:#ee4c2c;fill-opacity:1;stroke-width:0.30383867"
           id="path8143"
           inkscape:original-d="m 61.751073,22.682734 q -0.04154,0.741793 -0.593435,0.741793 -0.510354,0 -0.510354,-0.5875 0,-0.112753 -0.0178,-0.415405 l -0.0178,-0.498485 q -0.937627,0.112753 -1.50139,0.528157 -0.528157,0.385733 -0.878284,1.163133 l 0.01187,3.252023 q 0,0.59937 -0.587501,0.59937 -0.522223,0 -0.522223,-0.59937 v -4.165913 q 0,-0.195834 0.01187,-0.587501 0.0178,-0.391667 0.0178,-0.5875 0,-0.59937 0.522223,-0.59937 0.581566,0 0.5875,0.985102 1.139396,-1.097854 2.528033,-1.097854 0.480683,0 0.718057,0.361995 0.237374,0.361995 0.237374,1.09192 0,0.308586 -0.0059,0.415405 z"
           inkscape:connector-curvature="0" />
      </g>
      <g
         aria-label="Mentor"
         transform="scale(0.99618164,1.003833)"
         style="font-style:normal;font-variant:normal;font-weight:normal;font-stretch:normal;font-size:12.21205521px;line-height:1.25;font-family:'Comic Sans MS';-inkscape-font-specification:'Comic Sans MS, Normal';font-variant-ligatures:normal;font-variant-caps:normal;font-variant-numeric:normal;font-feature-settings:normal;text-align:start;letter-spacing:0px;word-spacing:0px;writing-mode:lr-tb;text-anchor:start;fill:#206977;fill-opacity:1;stroke:none;stroke-width:0.3053014"
         id="text7798">
        <path
           d="m 70.109616,28.052166 c -0.214522,-0.02931 -0.37593,-0.161904 -0.484512,-0.3978 -0.09307,-0.202197 -0.156948,-0.526727 -0.191755,-0.973602 -0.02503,-0.342905 -0.05008,-0.685814 -0.07518,-1.028728 -0.0769,-0.64568 -0.143782,-2.041136 -0.206512,-4.208437 -0.559188,1.114144 -1.116604,2.228912 -1.67029,3.344672 -0.166519,0.352627 -0.332693,0.705343 -0.49847,1.058157 -0.200765,0.41917 -0.396183,0.758287 -0.586338,1.017269 -0.204009,0.27297 -0.444601,0.391278 -0.721976,0.355355 -0.230484,-0.02985 -0.395723,-0.177166 -0.496507,-0.442316 -0.06491,-0.173837 -0.116418,-0.391281 -0.154594,-0.652303 -0.0292,-0.222451 -0.05854,-0.444895 -0.08803,-0.667334 -0.2218,-1.417898 -0.391511,-2.930126 -0.508805,-4.529999 -0.114461,0.338704 -0.228546,0.677483 -0.342236,1.01634 -0.380778,0.994125 -0.757394,1.989166 -1.129135,2.985237 -0.07356,0.358475 -0.233084,0.87922 -0.477016,1.568512 -0.150859,0.289776 -0.358931,0.419589 -0.624558,0.390416 -0.188666,-0.02072 -0.331202,-0.104827 -0.428224,-0.25275 -0.08369,-0.126814 -0.116597,-0.27572 -0.09837,-0.446712 0.06909,-0.648294 0.287141,-1.432599 0.661415,-2.346832 0.301864,-0.759571 0.607299,-1.518337 0.915908,-2.276364 0.185378,-0.59876 0.372073,-1.197274 0.559998,-1.795555 0.277044,-0.837993 0.532325,-1.377191 0.76309,-1.617895 0.189513,-0.206139 0.404751,-0.294936 0.644639,-0.266143 0.264304,0.03173 0.443343,0.199426 0.536924,0.502444 0.11463,0.364698 0.195598,1.089932 0.240298,2.175377 0.04949,1.30173 0.200283,2.726228 0.446425,4.267435 0.780436,-1.418689 1.497613,-2.902427 2.149319,-4.462401 0.09837,-0.274905 0.196844,-0.549786 0.295414,-0.824642 0.118501,-0.331395 0.250149,-0.59387 0.394918,-0.787498 0.195403,-0.26572 0.429402,-0.380137 0.701289,-0.343173 0.343865,0.04675 0.560594,0.404107 0.650564,1.071729 0.03308,0.229552 0.04724,0.697317 0.04232,1.403287 -0.0087,1.782758 0.07477,3.318828 0.251752,4.6058 0.05096,0.346446 0.101949,0.692884 0.15301,1.039312 0.07672,0.555234 0.106593,0.894676 0.08934,1.018675 -0.02318,0.166564 -0.108286,0.29702 -0.25526,0.391434 -0.142979,0.09495 -0.295964,0.131289 -0.458845,0.109033 z"
           style="font-style:normal;font-variant:normal;font-weight:normal;font-stretch:normal;font-size:12.21205521px;font-family:'Comic Sans MS';-inkscape-font-specification:'Comic Sans MS, Normal';font-variant-ligatures:normal;font-variant-caps:normal;font-variant-numeric:normal;font-feature-settings:normal;text-align:start;writing-mode:lr-tb;text-anchor:start;fill:#206977;fill-opacity:1;stroke-width:0.3053014"
           id="path8146"
           inkscape:original-d="m 70.974878,27.787582 q -0.321997,0 -0.530699,-0.333923 -0.178888,-0.286221 -0.321998,-0.954067 L 69.907516,25.47397 q -0.24448,-0.954067 -0.775179,-4.20982 l -1.192584,3.595639 -0.351812,1.132955 q -0.214665,0.673809 -0.447219,1.103139 -0.250442,0.453182 -0.673809,0.453182 -0.351813,0 -0.554552,-0.381627 -0.131184,-0.250442 -0.238516,-0.638032 L 65.50092,25.867522 q -0.602255,-2.104909 -1.061399,-4.507965 l -0.214665,1.067362 -0.769217,3.14842 q -0.0477,0.554552 -0.298146,1.639803 -0.178887,0.465107 -0.590329,0.465107 -0.292183,0 -0.465107,-0.208702 -0.149073,-0.178887 -0.149073,-0.441256 0,-0.995807 0.411441,-2.444796 l 0.655921,-2.403056 0.345849,-1.878319 q 0.262369,-1.317804 0.554552,-1.723283 0.238516,-0.345849 0.590329,-0.345849 0.387589,0 0.578403,0.441256 0.232553,0.5307 0.500885,2.164539 0.316034,1.9618 0.983881,4.245597 0.882512,-2.295723 1.526507,-4.78226 l 0.178887,-0.870586 q 0.107333,-0.524736 0.280258,-0.846734 0.232553,-0.441256 0.638032,-0.441256 0.512811,0 0.781142,0.989845 0.09541,0.339886 0.232554,1.407248 0.351812,2.695239 0.876549,4.603372 l 0.292183,1.025622 q 0.226591,0.822883 0.226591,1.013696 0,0.256406 -0.196777,0.42933 -0.190813,0.172925 -0.435293,0.172925 z"
           inkscape:connector-curvature="0" />
        <path
           d="m 74.8768,28.477427 c -0.912694,-0.119253 -1.617227,-0.438325 -2.116293,-0.952123 -0.236867,-0.246757 -0.410391,-0.52238 -0.521029,-0.826565 -0.144343,-0.395178 -0.182126,-0.839198 -0.114013,-1.331736 0.08674,-0.627241 0.26211,-1.178112 0.525538,-1.652753 0.159468,-0.287383 0.351277,-0.54681 0.575374,-0.778437 0.646579,-0.67041 1.422633,-0.944521 2.329467,-0.826078 0.657406,0.08586 1.179424,0.262604 1.567852,0.531861 0.476823,0.331378 0.682883,0.773863 0.614522,1.329071 -0.0478,0.388195 -0.316616,0.714514 -0.809214,0.976616 -0.217481,0.114694 -0.670015,0.279395 -1.357031,0.49018 -0.810705,0.252065 -1.622316,0.5009 -2.432576,0.74817 0.179437,0.351883 0.424183,0.63171 0.734679,0.839067 0.314471,0.207873 0.695127,0.341429 1.141991,0.399778 0.277715,0.03626 0.611067,0.02812 0.999537,-0.02511 0.493075,-0.06761 0.821597,-0.196804 0.984668,-0.385635 0.163591,-0.192755 0.323879,-0.279623 0.481469,-0.260619 0.141432,0.01705 0.260372,0.08444 0.357027,0.202258 0.101168,0.114414 0.143793,0.239523 0.127501,0.375469 -0.05164,0.430935 -0.460008,0.759915 -1.227131,0.981046 -0.654936,0.187369 -1.276794,0.242051 -1.862338,0.165543 z m 0.540033,-5.320643 c -0.484678,-0.06335 -0.912569,0.06711 -1.284732,0.392235 -0.371568,0.321187 -0.687604,0.838941 -0.947864,1.553466 0.65029,-0.199965 1.300994,-0.400904 1.950934,-0.60368 0.767561,-0.246617 1.31993,-0.478249 1.658789,-0.692034 -0.302863,-0.353463 -0.761366,-0.569499 -1.377127,-0.649987 z"
           style="font-style:normal;font-variant:normal;font-weight:normal;font-stretch:normal;font-size:12.21205521px;font-family:'Comic Sans MS';-inkscape-font-specification:'Comic Sans MS, Normal';font-variant-ligatures:normal;font-variant-caps:normal;font-variant-numeric:normal;font-feature-settings:normal;text-align:start;writing-mode:lr-tb;text-anchor:start;fill:#206977;fill-opacity:1;stroke-width:0.3053014"
           id="path8148"
           inkscape:original-d="m 75.679621,27.566954 q -1.34762,0 -2.182428,-0.67381 -0.912327,-0.745364 -0.912327,-2.087021 0,-1.550358 0.751328,-2.599832 0.81692,-1.14488 2.182428,-1.14488 0.989844,0 1.61595,0.333923 0.769217,0.411442 0.769217,1.264139 0,0.596292 -0.67381,1.085251 -0.298146,0.214665 -1.264138,0.667847 l -2.277835,1.079288 q 0.333923,0.494922 0.828846,0.745364 0.500885,0.250443 1.162769,0.250443 0.411441,0 0.965992,-0.155036 0.703624,-0.196776 0.906364,-0.512811 0.202739,-0.321997 0.435293,-0.321997 0.208702,0 0.369701,0.160998 0.166961,0.155036 0.166961,0.363738 0,0.661884 -1.067362,1.138918 -0.912326,0.405478 -1.776949,0.405478 z m -0.160999,-5.432218 q -0.727476,0 -1.210472,0.566477 -0.482997,0.560514 -0.721514,1.693469 l 1.830616,-0.870586 q 1.079288,-0.524737 1.538433,-0.912327 -0.512811,-0.477033 -1.437063,-0.477033 z"
           inkscape:connector-curvature="0" />
        <path
           d="m 83.661233,29.558526 c -0.361777,-0.02657 -0.550023,-0.22617 -0.566216,-0.595757 -0.02382,-0.431124 -0.04693,-0.86225 -0.06934,-1.293376 -0.01999,-0.460226 -0.01285,-0.889237 0.0203,-1.286355 0.0091,-0.109184 0.03064,-0.293392 0.06454,-0.553468 0.03791,-0.259471 0.06135,-0.44408 0.0704,-0.55299 0.0699,-0.841369 -0.05536,-1.274611 -0.372789,-1.302002 -0.445609,-0.03845 -0.894453,0.181011 -1.353823,0.658857 -0.414589,0.434891 -0.765857,1.000604 -1.052273,1.698155 -0.02406,0.150765 -0.0624,0.339537 -0.115106,0.565957 -0.04496,0.191905 -0.07719,0.379213 -0.09655,0.561976 -0.01235,0.116577 -0.01865,0.292982 -0.0187,0.52876 -4.9e-5,0.235929 -0.0061,0.412037 -0.01842,0.528771 -0.01844,0.174997 -0.09106,0.310994 -0.218215,0.407866 -0.122991,0.09727 -0.273395,0.136549 -0.450675,0.117576 -0.181395,-0.01941 -0.321526,-0.08979 -0.420262,-0.210807 -0.09875,-0.121029 -0.137963,-0.269042 -0.118118,-0.443909 0.01324,-0.11665 0.01872,-0.292983 0.01666,-0.529394 0.002,-0.235824 0.0098,-0.412189 0.02305,-0.5287 0.04568,-0.400775 0.137199,-0.950287 0.273926,-1.651791 0.140997,-0.703938 0.233682,-1.257356 0.278805,-1.657151 0.01404,-0.124432 0.02689,-0.309776 0.03868,-0.556451 0.01575,-0.24609 0.03072,-0.43149 0.04478,-0.555778 0.01891,-0.167111 0.08969,-0.296925 0.211935,-0.389629 0.126653,-0.09617 0.27257,-0.135221 0.438082,-0.117374 0.362094,0.03904 0.534764,0.312076 0.51742,0.821422 -0.0179,0.228108 -0.03578,0.456219 -0.05362,0.684331 0.76011,-0.802145 1.479268,-1.172658 2.175698,-1.112401 0.62922,0.05444 1.045843,0.361751 1.254833,0.929739 0.143052,0.378305 0.1984,0.927557 0.163147,1.64532 l -0.04233,0.590431 c -0.01504,0.181077 -0.03008,0.362153 -0.04514,0.543229 -0.02318,0.323052 -0.01052,0.745865 0.04005,1.265922 0.05506,0.51724 0.07261,0.934662 0.05052,1.254683 -0.01184,0.171513 -0.08219,0.305789 -0.211624,0.402609 -0.125452,0.10097 -0.278914,0.145 -0.459666,0.131726 1.5e-5,10e-7 3.1e-5,2e-6 4.6e-5,3e-6 z"
           style="font-style:normal;font-variant:normal;font-weight:normal;font-stretch:normal;font-size:12.21205521px;font-family:'Comic Sans MS';-inkscape-font-specification:'Comic Sans MS, Normal';font-variant-ligatures:normal;font-variant-caps:normal;font-variant-numeric:normal;font-feature-settings:normal;text-align:start;writing-mode:lr-tb;text-anchor:start;fill:#206977;fill-opacity:1;stroke-width:0.3053014"
           id="path8150"
           inkscape:original-d="m 84.170815,27.716027 q -0.512811,0 -0.578403,-0.560514 L 83.42545,25.849634 q -0.08348,-0.697662 -0.08348,-1.305879 0,-0.166962 0.01789,-0.566477 0.02385,-0.399516 0.02385,-0.566478 0,-1.28799 -0.477034,-1.28799 -0.667846,0 -1.276064,0.793068 -0.548588,0.721513 -0.85866,1.824653 -0.01193,0.232554 -0.05367,0.584366 -0.03578,0.298146 -0.03578,0.578403 0,0.178887 0.03578,0.536663 0.03578,0.357775 0.03578,0.536662 0,0.268331 -0.166962,0.435293 -0.160998,0.166962 -0.417404,0.166962 -0.262368,0 -0.423367,-0.166962 -0.160999,-0.166962 -0.160999,-0.435293 0,-0.178887 -0.04174,-0.536662 -0.03578,-0.357776 -0.03578,-0.536663 0,-0.614181 0.08348,-1.699432 0.08944,-1.091213 0.08944,-1.705394 0,-0.190813 -0.02385,-0.566477 -0.01789,-0.375664 -0.01789,-0.566477 0,-0.256406 0.166961,-0.417405 0.172925,-0.166961 0.423367,-0.166961 0.548589,0 0.602255,0.775179 l 0.01789,0.697661 q 1.00177,-1.335693 2.057206,-1.335693 0.954067,0 1.329731,0.840771 0.256406,0.560514 0.280257,1.657691 v 0.602255 l -0.006,0.554551 q 0,0.494923 0.125222,1.282028 0.131184,0.781142 0.131184,1.270101 0,0.262368 -0.172925,0.423367 -0.166962,0.166962 -0.423367,0.166962 z"
           inkscape:connector-curvature="0" />
        <path
           d="m 89.896094,24.398422 c -0.08388,-8.7e-5 -0.183825,-0.0043 -0.29957,-0.01274 -0.11182,-0.0085 -0.209515,-0.01319 -0.293386,-0.01403 -0.0458,-4.59e-4 -0.135297,0.0058 -0.269854,0.01844 -0.137659,0.01284 -0.31695,0.0317 -0.546313,0.05638 0.01222,1.155471 0.02625,2.311 0.04211,3.466588 3.26e-4,0.08602 6.59e-4,0.172031 9.98e-4,0.258047 5.8e-5,0.09969 1.24e-4,0.199386 1.99e-4,0.299079 -7.15e-4,0.855698 -0.23259,1.280163 -0.700959,1.266117 -0.171091,-0.0051 -0.319073,-0.0609 -0.443378,-0.166906 -0.120066,-0.105881 -0.176852,-0.235134 -0.171235,-0.387393 0.0055,-0.148577 0.02004,-0.370498 0.04355,-0.666987 0.02348,-0.296089 0.03784,-0.518826 0.04324,-0.667005 -1.71e-4,-1.141686 0.0014,-2.283314 0.0048,-3.424882 -0.288783,-0.02242 -0.735356,-0.07396 -1.324137,-0.16 -0.352718,-0.06587 -0.517668,-0.270127 -0.497182,-0.60918 0.01037,-0.171588 0.0724,-0.310722 0.185393,-0.417661 0.113025,-0.106969 0.251809,-0.155868 0.416918,-0.147125 0.411041,0.05502 0.822416,0.107009 1.234194,0.155696 0.0076,-0.199334 0.008,-0.464765 0.0013,-0.797573 -0.0026,-0.336045 -7.91e-4,-0.579008 0.005,-0.72706 0.0064,-0.163983 0.06755,-0.296508 0.182613,-0.397949 0.115236,-0.105376 0.252806,-0.155456 0.41333,-0.150661 0.343129,0.01025 0.537083,0.301072 0.581978,0.876921 0.0083,0.144774 0.01021,0.318867 0.0056,0.522004 -0.0064,0.113231 -0.01291,0.22646 -0.0194,0.339688 -0.0047,0.121085 -0.0094,0.242169 -0.01418,0.363252 0.246061,-0.02609 0.430011,-0.04573 0.572783,-0.05979 0.141534,-0.01417 0.229293,-0.02137 0.265122,-0.02106 0.408323,0.0034 0.673452,0.0218 0.799742,0.06071 0.239124,0.07734 0.361008,0.259997 0.36337,0.549802 0.0014,0.172284 -0.05288,0.315698 -0.163921,0.429909 -0.107022,0.110223 -0.246867,0.165546 -0.418718,0.165367 -1.4e-5,5e-6 -2.9e-5,9e-6 -4.3e-5,1.4e-5 z"
           style="font-style:normal;font-variant:normal;font-weight:normal;font-stretch:normal;font-size:12.21205521px;font-family:'Comic Sans MS';-inkscape-font-specification:'Comic Sans MS, Normal';font-variant-ligatures:normal;font-variant-caps:normal;font-variant-numeric:normal;font-feature-settings:normal;text-align:start;writing-mode:lr-tb;text-anchor:start;fill:#206977;fill-opacity:1;stroke-width:0.3053014"
           id="path8152"
           inkscape:original-d="m 89.978697,22.212254 q -0.125221,0 -0.298146,-0.01193 -0.166961,-0.01193 -0.292183,-0.01193 -0.137147,0 -0.810956,0.08944 l 0.113295,3.524084 0.006,0.262369 0.006,0.304109 q 0.02385,1.305878 -0.626107,1.305878 -0.238516,0 -0.417404,-0.155035 -0.172924,-0.155036 -0.172924,-0.38759 0,-0.226591 0.01789,-0.679773 0.01789,-0.453181 0.01789,-0.679772 L 87.402794,22.28976 q -0.435293,-0.01789 -1.323768,-0.10137 -0.5307,-0.07156 -0.5307,-0.590329 0,-0.262368 0.160999,-0.435293 0.160999,-0.172924 0.411442,-0.172924 l 1.252212,0.101369 q 0,-0.304108 -0.02981,-0.810956 -0.02385,-0.512811 -0.02385,-0.739402 0,-0.250443 0.172925,-0.411441 0.172924,-0.166962 0.423367,-0.166962 0.536662,0 0.626106,0.876549 0.01789,0.220628 0.01789,0.530699 l -0.01193,0.34585 -0.006,0.369701 q 0.739402,-0.09541 0.846734,-0.09541 0.620144,0 0.810957,0.05963 0.363738,0.119258 0.363738,0.560514 0,0.262369 -0.166962,0.435293 -0.160998,0.166962 -0.417404,0.166962 z"
           inkscape:connector-curvature="0" />
        <path
           d="m 94.289691,29.605507 c -0.742428,0.05343 -1.393076,-0.15887 -1.935492,-0.62499 -0.606209,-0.519623 -0.920706,-1.241647 -0.970347,-2.15317 -0.04488,-0.88456 0.175591,-1.668235 0.632156,-2.357348 0.53373,-0.815211 1.272275,-1.24357 2.243286,-1.319473 0.776296,-0.06068 1.396572,0.2318 1.889707,0.894809 0.392536,0.535263 0.646785,1.205466 0.740047,2.012605 0.100555,0.862917 -0.04519,1.629138 -0.467091,2.298029 -0.476452,0.756103 -1.198993,1.182372 -2.132266,1.249538 z m -0.01295,-5.260193 c -0.585949,0.0413 -1.025242,0.34005 -1.330351,0.909003 -0.241258,0.455141 -0.35465,0.965964 -0.329819,1.533457 0.02484,0.567619 0.209626,1.003213 0.564932,1.302799 0.296262,0.247294 0.639372,0.358557 1.024001,0.331037 0.449484,-0.03216 0.825456,-0.214117 1.119444,-0.540651 0.33465,-0.362499 0.477341,-0.824354 0.439501,-1.383268 -0.100596,-1.514997 -0.609521,-2.216312 -1.487708,-2.152377 z"
           style="font-style:normal;font-variant:normal;font-weight:normal;font-stretch:normal;font-size:12.21205521px;font-family:'Comic Sans MS';-inkscape-font-specification:'Comic Sans MS, Normal';font-variant-ligatures:normal;font-variant-caps:normal;font-variant-numeric:normal;font-feature-settings:normal;text-align:start;writing-mode:lr-tb;text-anchor:start;fill:#206977;fill-opacity:1;stroke-width:0.3053014"
           id="path8154"
           inkscape:original-d="m 93.973852,27.644472 q -1.00177,0 -1.723283,-0.739402 -0.804994,-0.822883 -0.846734,-2.212242 -0.03578,-1.34762 0.679772,-2.373242 0.834809,-1.210472 2.325538,-1.210472 1.192584,0 1.806764,1.091214 0.48896,0.882512 0.471071,2.122799 -0.01789,1.323768 -0.691699,2.259946 -0.763253,1.061399 -2.021429,1.061399 z m 0.357775,-5.324886 q -0.876549,-0.006 -1.365508,0.834809 -0.387589,0.67381 -0.387589,1.538433 0,0.864623 0.47107,1.347619 0.393553,0.399516 0.924252,0.399516 0.620144,0 1.067363,-0.453182 0.506848,-0.500885 0.536662,-1.353582 0.08348,-2.30765 -1.24625,-2.313613 z"
           inkscape:connector-curvature="0" />
        <path
           d="m 102.77485,23.382395 c 0.1155,0.474168 -0.009,0.768523 -0.38121,0.873076 -0.34341,0.09658 -0.56433,-0.04676 -0.66465,-0.419037 -0.0194,-0.07184 -0.0607,-0.201595 -0.12406,-0.390928 -0.0484,-0.156703 -0.0967,-0.31343 -0.14487,-0.470179 -0.58487,0.231288 -1.03221,0.511639 -1.34605,0.860504 -0.293683,0.32371 -0.510287,0.75813 -0.65085,1.306357 0.211202,1.048487 0.422735,2.0969 0.6346,3.14524 0.0763,0.385899 -0.104146,0.625073 -0.546919,0.705739 -0.393254,0.07164 -0.620809,-0.09198 -0.685988,-0.480431 l -0.680646,-4.056443 c -0.02138,-0.127439 -0.04927,-0.318161 -0.08419,-0.574012 -0.0309,-0.255877 -0.05735,-0.448111 -0.07872,-0.574909 -0.06568,-0.389621 0.07109,-0.610331 0.404484,-0.669893 0.370144,-0.06613 0.622554,0.212797 0.752758,0.848163 0.606063,-0.85464 1.31274,-1.381345 2.17521,-1.614752 0.29862,-0.08082 0.55309,-0.03093 0.76945,0.15374 0.2156,0.184008 0.39707,0.505441 0.53746,0.964059 0.0594,0.194216 0.0975,0.325249 0.11413,0.393723 2e-5,-6e-6 4e-5,-1.2e-5 6e-5,-1.7e-5 z"
           style="font-style:normal;font-variant:normal;font-weight:normal;font-stretch:normal;font-size:12.21205521px;font-family:'Comic Sans MS';-inkscape-font-specification:'Comic Sans MS, Normal';font-variant-ligatures:normal;font-variant-caps:normal;font-variant-numeric:normal;font-feature-settings:normal;text-align:start;writing-mode:lr-tb;text-anchor:start;fill:#206977;fill-opacity:1;stroke-width:0.3053014"
           id="path8156"
           inkscape:original-d="m 102.79301,22.886064 q -0.0417,0.745364 -0.59629,0.745364 -0.51282,0 -0.51282,-0.590328 0,-0.113296 -0.0179,-0.417405 l -0.0179,-0.500885 q -0.94214,0.113296 -1.50862,0.5307 -0.5307,0.38759 -0.882512,1.168732 l 0.01193,3.267679 q 0,0.602254 -0.590329,0.602254 -0.524736,0 -0.524736,-0.602254 v -4.185969 q 0,-0.196776 0.01193,-0.590328 0.01789,-0.393553 0.01789,-0.590329 0,-0.602255 0.524737,-0.602255 0.584366,0 0.590329,0.989844 1.144881,-1.103139 2.540201,-1.103139 0.483,0 0.72151,0.363738 0.23852,0.363738 0.23852,1.097176 0,0.310072 -0.006,0.417405 z"
           inkscape:connector-curvature="0" />
      </g>
      <path
         style="opacity:1;fill:#f70b0b;fill-opacity:1;fill-rule:evenodd;stroke:#000000;stroke-width:0.19061953;stroke-opacity:1"
         d="m 68.874001,17.937092 c 0.342552,0.04657 0.684414,0.09342 1.025595,0.140395 l -0.136546,0.99301 c -0.340827,-0.04692 -0.682199,-0.09369 -1.024126,-0.140179 z"
         id="rect7761"
         inkscape:original-d="m 68.376709,17.733109 h 1.018904 v 1.018904 h -1.018904 z"
         inkscape:connector-curvature="0" />
      <path
         style="opacity:1;fill:#f70b0b;fill-opacity:1;fill-rule:evenodd;stroke:#000000;stroke-width:0.19061953;stroke-opacity:1"
         d="m 69.595389,27.419154 c 0.339016,0.04671 0.678625,0.09352 1.018836,0.140277 l -0.137061,0.992766 c -0.340388,-0.04674 -0.680037,-0.09351 -1.018958,-0.14018 z"
         id="rect7761-3"
         inkscape:original-d="m 70.361084,27.182512 h 1.018904 v 1.018905 h -1.018904 z"
         inkscape:connector-curvature="0" />
      <path
         style="opacity:1;fill:#f70b0b;fill-opacity:1;fill-rule:evenodd;stroke:#000000;stroke-width:0.19061953;stroke-opacity:1"
         d="m 61.040541,26.331023 c 0.329678,0.03492 0.659858,0.07113 0.990552,0.108489 l -0.111857,0.995561 c -0.328547,-0.03716 -0.656446,-0.07316 -0.983705,-0.107868 z"
         id="rect7761-6"
         inkscape:original-d="m 61.667633,27.18251 h 1.018904 v 1.018905 h -1.018904 z"
         inkscape:connector-curvature="0" />
      <path
         style="opacity:1;fill:#f70b0b;fill-opacity:1;fill-rule:evenodd;stroke:#000000;stroke-width:0.19061953;stroke-opacity:1"
         d="m 64.063086,17.32068 c 0.349187,0.04105 0.697634,0.08301 1.045351,0.125761 L 64.98559,18.44097 c -0.346102,-0.04259 -0.692797,-0.08439 -1.040096,-0.12526 z"
         id="rect7761-0"
         inkscape:original-d="m 63.652004,17.733105 h 1.018904 v 1.018904 h -1.018904 z"
         inkscape:connector-curvature="0" />
      <path
         style="opacity:1;fill:#f70b0b;fill-opacity:1;fill-rule:evenodd;stroke:#000000;stroke-width:0.19061953;stroke-opacity:1"
         d="m 65.03294,26.616965 c 0.3341,0.04299 0.668718,0.0867 1.003866,0.131007 l -0.131038,0.993698 c -0.334088,-0.04419 -0.66751,-0.08778 -1.000277,-0.130632 z"
         id="rect7761-2"
         inkscape:original-d="m 65.730873,26.993523 h 1.018904 v 1.018904 h -1.018904 z"
         inkscape:connector-curvature="0" />
      <path
         style="opacity:1;fill:#f70b0b;fill-opacity:1;fill-rule:evenodd;stroke:#000000;stroke-width:0.19061953;stroke-opacity:1"
         d="m 97.419528,22.295078 c 0.321696,-0.05294 0.642184,-0.109949 0.961333,-0.171223 l 0.189834,0.982076 c -0.327932,0.06319 -0.657014,0.121994 -0.987118,0.176597 z"
         id="rect7761-0-4"
         inkscape:original-d="m 97.764359,20.66242 h 1.018904 v 1.018905 h -1.018904 z"
         inkscape:connector-curvature="0" />
      <path
         style="opacity:1;fill:#f70b0b;fill-opacity:1;fill-rule:evenodd;stroke:#000000;stroke-width:0.19061953;stroke-opacity:1"
         d="m 98.558334,28.504529 c 0.374709,-0.06434 0.749382,-0.133569 1.123887,-0.20788 l 0.192283,0.981538 c -0.383323,0.07625 -0.766626,0.147297 -1.149777,0.213324 z"
         id="rect7761-0-9"
         inkscape:original-d="m 97.858849,27.088017 h 1.018904 v 1.018904 h -1.018904 z"
         inkscape:connector-curvature="0" />
      <path
         style="opacity:1;fill:#f70b0b;fill-opacity:1;fill-rule:evenodd;stroke:#000000;stroke-width:0.19061953;stroke-opacity:1"
         d="m 100.52557,21.352619 c 0.30949,-0.08157 0.61728,-0.167823 0.92325,-0.258945 l 0.28407,0.958621 c -0.316,0.09389 -0.63364,0.182776 -0.95279,0.26686 z"
         id="rect7761-0-0"
         inkscape:original-d="m 101.16614,20.378941 h 1.0189 v 1.018904 h -1.0189 z"
         inkscape:connector-curvature="0" />
      <path
         style="opacity:1;fill:#f70b0b;fill-opacity:1;fill-rule:evenodd;stroke:#000000;stroke-width:0.19061953;stroke-opacity:1"
         d="m 101.44489,24.081446 c 0.33683,-0.09067 0.67248,-0.186421 1.00682,-0.287444 l 0.28968,0.957069 c -0.34445,0.103834 -0.69002,0.20227 -1.03658,0.2955 z"
         id="rect7761-0-3"
         inkscape:original-d="m 101.35513,23.308256 h 1.01891 v 1.018904 h -1.01891 z"
         inkscape:connector-curvature="0" />
    </g>
  </g>
</svg>
